<?xml version="1.0" standalone="no"?><!DOCTYPE svg PUBLIC "-//W3C//DTD SVG 1.1//EN" "http://www.w3.org/Graphics/SVG/1.1/DTD/svg11.dtd"><svg t="1773939949310" class="icon" viewBox="0 0 1024 1024" version="1.1" xmlns="http://www.w3.org/2000/svg" p-id="20759" xmlns:xlink="http://www.w3.org/1999/xlink" width="1024" height="1024"><path d="M832 269.312a32.016 32.016 0 0 1-30.4-22.016l-39.088-118.944-432.688 139.408a32 32 0 0 1-19.616-60.928l434.96-140.128c34.288-9.728 68.992 9.552 78.464 42.688l38.8 117.904A32 32 0 0 1 832 269.312zM656 768c-79.536 0-144-64.464-144-144s64.464-144 144-144h304v-96c0-52.944-43.056-96-96-96H160c-52.944 0-96 43.056-96 96v480c0 52.944 43.056 96 96 96h704c52.944 0 96-43.056 96-96v-96H656z" p-id="20760"></path><path d="M656 624m-80 0a80 80 0 1 0 160 0 80 80 0 1 0-160 0Z" p-id="20761"></path></svg>